<?xml version="1.0" standalone="no"?>
<!DOCTYPE svg PUBLIC "-//W3C//DTD SVG 20010904//EN"
 "http://www.w3.org/TR/2001/REC-SVG-20010904/DTD/svg10.dtd">
<svg version="1.0" xmlns="http://www.w3.org/2000/svg"
 width="700.000000pt" height="700.000000pt" viewBox="0 0 700.000000 700.000000"
 preserveAspectRatio="xMidYMid meet">
<metadata>
Created by potrace 1.11, written by Peter Selinger 2001-2013
</metadata>
<g transform="translate(0.000000,700.000000) scale(0.100000,-0.100000)"
fill="#000000" stroke="none">
<path d="M1622 5773 c-7 -49 -15 -106 -18 -128 -3 -22 -7 -49 -8 -60 -2 -11
-7 -47 -11 -80 -4 -33 -9 -69 -11 -79 -2 -11 -8 -56 -14 -100 -6 -45 -13 -92
-15 -106 -4 -27 -52 -360 -61 -425 -3 -22 -11 -80 -19 -130 -8 -49 -17 -115
-20 -145 -3 -30 -8 -62 -10 -70 -2 -8 -7 -40 -10 -70 -3 -30 -8 -64 -10 -75
-3 -11 -7 -36 -9 -55 -3 -19 -12 -82 -20 -140 -8 -58 -18 -123 -20 -145 -5
-35 -66 -466 -82 -570 -3 -22 -8 -52 -9 -68 -10 -73 -26 -186 -29 -203 -2 -10
-7 -44 -11 -74 -6 -51 -9 -69 -20 -140 -2 -14 -7 -49 -10 -79 -4 -30 -9 -63
-11 -75 -2 -12 -6 -39 -9 -61 -3 -22 -7 -51 -10 -65 -2 -14 -7 -50 -10 -80 -4
-30 -10 -59 -15 -63 -4 -5 -54 -10 -111 -10 l-104 -2 0 -653 c0 -360 3 -656 7
-658 6 -4 280 -6 574 -4 l81 0 -1 311 c-1 197 3 313 9 318 8 5 985 7 1041 2 8
-1 11 -91 11 -311 1 -171 3 -313 5 -316 4 -4 256 -6 556 -4 l102 0 0 658 0
659 -162 1 c-90 0 -165 1 -168 1 -3 1 -5 762 -4 1691 l2 1690 -677 0 -677 0
-12 -87z m703 -1953 l0 -1344 -225 1 c-124 1 -231 2 -238 2 -10 1 -12 11 -9
34 3 17 10 66 16 107 7 41 14 86 16 100 7 42 24 153 30 200 3 25 10 70 15 100
5 30 12 78 15 105 4 28 8 57 10 65 2 8 7 38 10 65 3 28 10 73 15 100 5 28 16
101 25 163 9 62 18 122 20 132 2 10 11 69 20 130 9 61 18 119 19 128 2 9 7 42
11 72 4 30 9 64 11 74 4 20 23 158 30 211 2 17 8 55 14 85 5 30 12 75 15 100
3 25 8 52 10 60 2 8 6 35 9 60 5 41 58 396 72 480 8 51 11 72 13 97 1 24 25
33 56 23 20 -7 20 -17 20 -1350z"/>
<path d="M3844 3507 l0 -2355 26 -4 c42 -5 1033 -1 1055 4 11 3 40 9 65 13
229 37 436 141 595 300 198 197 315 479 352 845 10 93 9 450 -1 545 -12 108
-53 304 -85 396 -49 145 -142 314 -216 392 l-26 27 50 62 c81 100 161 261 187
379 2 11 6 28 9 40 2 11 6 28 9 37 3 9 8 35 11 57 3 22 9 67 14 100 19 130 2
505 -29 625 -5 19 -12 50 -15 68 -18 104 -88 268 -163 383 -150 227 -400 373
-712 415 -19 3 -46 7 -60 10 -14 4 -259 9 -545 11 l-521 5 0 -2355z m946 1549
c52 -3 120 -12 150 -21 138 -41 227 -152 248 -310 9 -62 9 -257 0 -310 -15
-98 -72 -203 -134 -250 -42 -32 -128 -72 -169 -78 -16 -3 -46 -8 -65 -11 -53
-10 -187 -14 -197 -7 -5 3 -8 219 -8 496 l0 490 25 5 c14 4 32 5 40 4 8 -2 58
-5 110 -8z m-30 -1839 c112 -23 200 -68 270 -137 143 -143 197 -402 144 -700
-10 -59 -52 -158 -90 -216 -86 -130 -263 -223 -419 -220 l-50 1 0 635 c-1 349
1 639 3 643 4 8 95 3 142 -6z"/>
</g>
</svg>
