<svg xmlns="http://www.w3.org/2000/svg" width="1200" height="800" viewBox="0 0 1800 1200"><path fill="#0051ba" d="m0 0h1800v1200h-1800z"/><g fill="#fff"><path d="m0 0h1800v800h-1800z"/><path d="m383.18 473c-38.836.069-67.02-29.633-105.19-29.89-33.68-.227-60.1 28.702-106.93 28.473.887-30.722.242-61.44-1.933-92.16-8.484-119.8 97.4-217.5 217.5-217.5 120.1 0 221.55 97.47 217.5 217.5-1.997 21.04-4.82 37.708-3.078 91.28-46.765.066-71.43-28.655-106.61-28.27-36.29.397-72.42 30.503-111.25 30.572z" stroke="#ccc"/></g><path d="m386.62 379.42l-207.05 56.02-1.945-56.02c-4-115.34 93.59-209 209-209 115.41 0 216.54 93.85 209 209l-3.432 52.39-205.57-52.39z" fill="#0051ba"/><path fill="#d81e05" stroke="#fff" stroke-linejoin="bevel" stroke-width="8" d="m385.53 164.54l29.06 34.76 37.4-24.58 16.89 42.03 43.16-11.81 3.08 45.19 44.7 2.11-11.04 43.93 41.87 15.81-24.08 38.38 34.08 27.97-40.52 43.46 32.37 15.19-207.21-39.17-205.57 41.86 32.1-23.79-40.07-35.37 34.75-29.05-24.57-37.4 42.03-16.89-11.82-43.17 45.2-3.08 2.1-44.7 43.93 11.04 15.82-41.86 38.37 24.07z"/><path d="m386.62 379.42l-168.24 63.992c-7.757-20.437-11.757-42.13-11.757-63.992 0-99.39 80.61-180 180-180 99.39 0 180 80.61 180 180 0 20.327-3.45 40.522-10.174 59.685l-169.83-59.685" fill="#fff"/><path d="m386.62 379.42l-158.9 60.44c-7.328-19.302-11.1-39.785-11.1-60.44 0-93.87 76.13-170 170-170 93.87 0 170 76.13 170 170 0 20.03-3.57 39.973-10.481 58.756l-159.52-58.756" fill="#d81e05"/><path d="m179.57 435.44c44.23-32.479 97.47-70.948 131.35-114.74h17.04l33.26 50.829 31.624-29.427h17.799l37.788 40.663 23.23-23.507 18.385.672c25.951 34.433 66.04 54.53 102.15 71.876l1.766 29.53-90.96-47.538-256.28 5.885-67.31 39.55.163-23.797" fill="#fff"/><path d="m179.32 464.67l.397-25c35.773-22.696 68-47.28 98.82-76.59l-8.731 23.811 19.843-23.414-8.334 30.558 23.414-24.605 3.175 35.717 15.477-36.11 18.652 25-.397-22.22 57.15 43.26-26.986-34.526 25 16.668 6.746-21.827 32.542 29.764-3.969-21.03 58.34 32.14-32.939-26.986 22.22 7.54 3.175-11.11 23.414 14.683-7.54-19.842c27.484 22.257 59.25 41.877 93.66 57.54l1.984 26.986c-36.09-4.74-66.36-30.654-103.79-29.643-34.531.933-70.34 29.448-106.93 30.437-36.19-.21-69.66-30.436-105.85-30.645-31.931-.185-66.6 29.64-98.53 29.454"/><g fill="#d81e05" stroke="#fff" stroke-width="5"><path d="m312.68 320.68h12.504c6.224-14.7 11.813-29.856 11.354-44.918-3.65 1.508-6.576 4.198-9.05 8.06-.934-6.977-3.131-13.05-7.404-18.757-4.678 4.727-7.639 10.54-8.885 17.441-1.891-2.791-3.961-4.402-7.568-5.923-.604 14.698 2.907 29.397 9.05 44.1z"/><path d="m395.53 342.35h12.504c6.224-14.7 11.813-29.856 11.354-44.918-3.65 1.508-6.576 4.198-9.05 8.06-.934-6.977-3.131-13.05-7.404-18.757-4.678 4.727-7.639 10.54-8.885 17.441-1.891-2.791-3.961-4.402-7.569-5.923-.604 14.698 2.907 29.397 9.05 44.1z"/><path d="m474.4 359.94h12.504c6.224-14.7 11.813-29.856 11.354-44.918-3.65 1.508-6.576 4.198-9.05 8.06-.934-6.977-3.131-13.05-7.404-18.757-4.678 4.727-7.639 10.54-8.885 17.441-1.891-2.791-3.961-4.402-7.568-5.923-.604 14.698 2.907 29.397 9.05 44.1z"/></g></svg>