<svg xmlns="http://www.w3.org/2000/svg" xmlns:xlink="http://www.w3.org/1999/xlink" viewBox="0 0 900 600"><defs><linearGradient gradientUnits="userSpaceOnUse" id="8" x1="-537.53" x2="-479.72" xlink:href="#0"/><linearGradient gradientUnits="userSpaceOnUse" id="D" x1="-441.99" x2="-328.14" xlink:href="#1" y1="118.27" y2="195.68"/><linearGradient gradientUnits="userSpaceOnUse" id="9" x1="-593.8" x2="-513.23" xlink:href="#1" y1="-194.9" y2="-269.18"/><linearGradient gradientUnits="userSpaceOnUse" id="B" x1="-575.73" x2="-509.99" xlink:href="#1"/><linearGradient gradientUnits="userSpaceOnUse" id="C" x1="-441.99" x2="-328.14" xlink:href="#1" y1="20.17" y2="97.57"/><linearGradient gradientUnits="userSpaceOnUse" id="A" x1="-507.26" x2="-441.52" xlink:href="#1"/><linearGradient gradientUnits="userSpaceOnUse" id="7" x1="-475.72" x2="-436.04" xlink:href="#1" y1="-262.52" y2="-218.15"/><linearGradient id="0"><stop stop-color="#c0c0c0"/><stop offset=".5" stop-color="#f7f7f7"/><stop offset="1" stop-color="#c0c0c0"/></linearGradient><linearGradient id="1"><stop stop-color="#d4af38"/><stop offset=".5" stop-color="#ffd90d"/><stop offset="1" stop-color="#d4af38"/></linearGradient><linearGradient gradientUnits="userSpaceOnUse" id="6" x1="-224.37" x2="-214.55" xlink:href="#0"/><linearGradient gradientUnits="userSpaceOnUse" id="2" x1="-711.54" x2="-606.55" xlink:href="#0" y1="31.559" y2="193.39"/><linearGradient gradientUnits="userSpaceOnUse" id="4" x1="-441.99" x2="-328.14" xlink:href="#1" y1="-77.939" y2="-.533"/><linearGradient gradientUnits="userSpaceOnUse" id="5" x1="486.3" x2="496.12" xlink:href="#0"/><linearGradient gradientUnits="userSpaceOnUse" id="3" x1="-693.46" x2="-570.32" xlink:href="#0" y1="-8.02" y2="-71.52"/></defs><g transform="translate(199.45 389.47)"><path fill="#c42730" stroke-width="1" d="m-199.45-389.47h900v600h-900z"/><g transform="translate(-199.45-389.47)"><path d="m92.69 450c-28.369 11.641-65.878 24.404-92.69 16.406v133.59h900v-143.06c-31.31 9.757-63.02 18.09-103.81-6.938-44.44 17.904-86.39 29.48-112.41 0-38.4 14.422-77.07 24.961-118.09 0-38.09 15.629-76.29 27.64-115.69 0-39.36 10.64-70.02 31.13-120.78 0-34.54 16.844-89.96 29.48-115.97 0-38.4 14.422-77.41 34.861-120.56 0" fill="#2e418a"/><path d="m94.81 534.19c-29.12 11.948-67.891 25.07-94.81 15.719v20.844c24.291.515 52.953-9.565 75.72-18.906 43.15 34.861 82.16 14.422 120.56 0 26.01 29.48 81.43 16.844 115.97 0 50.757 31.13 81.42 10.64 120.78 0 39.4 27.64 77.6 15.629 115.69 0 41.03 24.961 79.69 14.422 118.09 0 26.01 29.48 67.967 17.904 112.41 0 48.15 29.537 83.65 12.618 120.78 1.719v-11.781c-30.626 9.457-61.816 16.863-101.69-7.594-44.44 17.904-86.39 29.48-112.41 0-38.4 14.422-77.07 24.961-118.09 0-38.09 15.629-76.29 27.64-115.69 0-39.36 10.64-70.02 31.13-120.78 0-34.54 16.844-89.96 29.48-115.97 0-38.4 14.422-77.41 34.861-120.56 0m-2.125-55.19c-28.369 11.641-65.878 24.404-92.69 16.406v20.19c23.824-.088 51.49-9.867 73.59-18.938 43.15 34.861 82.16 14.422 120.56 0 26.01 29.48 81.43 16.844 115.97 0 50.757 31.13 81.42 10.64 120.78 0 39.4 27.64 77.6 15.629 115.69 0 41.03 24.961 79.69 14.422 118.09 0 26.01 29.48 67.967 17.904 112.41 0 49.08 30.1 84.999 11.947 122.91 1.094v-11.813c-31.31 9.757-63.02 18.09-103.81-6.938-44.44 17.904-86.39 29.48-112.41 0-38.4 14.422-77.07 24.961-118.09 0-38.09 15.629-76.29 27.64-115.69 0-39.36 10.64-70.02 31.13-120.78 0-34.54 16.844-89.96 29.48-115.97 0-38.4 14.422-77.41 34.861-120.56 0" fill="#fff"/></g><g transform="matrix(.4174 0 0 .4174 158.35-214.87)"><g transform="translate(-749.39-305.78)"><path d="m469.22 6.813h-456.87l228.44 263.78 228.44-263.78" fill="#c42730"/><path d="m245.25 573.03c2.66-4.614 5.851-8.848 10-12.375 9.421-8.01 23.01-12.531 42.563-12.531h150.22c10.632 0 17.205-1.312 20.938-4.719 3.733-3.406 5.75-9.774 5.75-21.969v-507.19l-229.47 264.91v293.88" fill="#183883"/><path d="m6.813 14.219v507.22c0 12.196 2.059 18.565 5.781 21.969 3.722 3.404 10.243 4.719 20.875 4.719h150.22c19.555 0 33.14 4.522 42.563 12.531 4.131 3.512 7.315 7.723 9.969 12.313l.031-293.84-229.44-264.91" fill="#0093dd"/><path d="m6.813 14.219l229.44 264.91-.031 293.84c1.721 2.976 3.255 6.076 4.531 9.375 1.267-3.277 2.794-6.354 4.5-9.313v-293.87l229.47-264.91v-7.438h-5.5l-228.44 263.78-228.44-263.78h-5.531v7.406" fill="#d4af38"/></g><path d="m-742.55-305.33l-6.841 5.888 236.26 272.78-.041 314.08h9.04v-314.04l236.3-272.83-6.841-5.888-233.93 270.13-233.93-270.13" fill="#fff"/><path d="m-749.38-305.78v521.44c0 12.943 2.098 21.63 7.961 26.992 5.863 5.362 14.352 6.51 25.5 6.51h150.22c18.52 0 30.2 4.148 38.15 10.905 7.947 6.756 12.438 16.421 15.632 28.24l3.276 12.149 3.276-12.149c3.194-11.815 7.685-21.48 15.632-28.24 7.947-6.756 19.626-10.905 38.15-10.905h150.22c11.148 0 19.626-1.15 25.5-6.51 5.873-5.36 8-14.05 8-26.992v-521.44zm6.8 6.8h467.91v514.64c0 12.194-2.03 18.569-5.763 21.975-3.733 3.406-10.307 4.727-20.939 4.727h-150.22c-19.555 0-33.12 4.513-42.541 12.522-6.81 5.789-11.268 13.298-14.512 21.685-3.244-8.387-7.702-15.896-14.512-21.685-9.42-8.01-22.986-12.522-42.541-12.522h-150.22c-10.632 0-17.17-1.323-20.897-4.727-3.722-3.404-5.763-9.779-5.763-21.975z" fill="#d4af38"/><path d="m-568.08 50.09l-.995 1.078-2.571 24.588-21.353 9.163h20.4l-1.285 12.563-22.22 8.459h21.312l-1.368 12.978-24.919 8h24.09l-3.898 37.462-5.639 22.16h3.276l15.175-11.402 15.13 11.402h3.317l-5.515-22.16-4.02-37.462h24.09l-24.919-8-1.368-12.978h21.353l-22.266-8.459-1.285-12.563h20.441l-21.395-9.163-2.571-24.588zm0 10.615l.705 6.924h-1.41zm-.912 8.915h1.824l.58 5.349h-2.985zm.912 6.634l1.659.663.705 6.551h-4.727l.705-6.551zm-3.773 1.493l-.622 6.219h-15.13zm7.546 0l15.797 6.219h-15.175zm-5.473 7.712h3.4l-1.7 2.737zm-1.078 1.99l1.617 2.654-2.28 3.69zm5.556 0l.663 6.344-2.28-3.69zm-2.778 4.519l2.737 4.437-2.737-.539-2.737.539zm0 5.722l3.98.912.663 6.427h-9.288l.663-6.427zm-6.01 1.659l-.622 5.68h-15.673zm12.02 0l16.295 5.68h-15.673zm-9.951 6.593h7.878l-3.939 4.271zm-.995 1.866l3.607 3.856-4.478 4.893zm9.868 0l.415 4.105.456 4.644-4.478-4.893zm-4.934 5.349l4.312 4.644-4.312-.912-4.312.912zm0 5.02l6.178 1.824.663 6.095h-13.683l.663-6.095zm-8.251 2.446l-.58 5.473h-17.912zm16.502 0l18.492 5.473h-17.912zm-15.175 6.302h13.849l.663 6.51-7.588 8.458-7.588-8.5zm-.954 9.08l6.593 7.339-8.334 9.288zm15.756.124l1.7 16.461-8.21-9.205zm-7.836 8.707l9.91 11.07.871 8.168h-21.602l.829-8.04zm-8.873 21.23h17.663l-8.832 6.634zm-2.488.58l9.536 7.173-14.14 10.78zm22.639 0l4.602 17.953-14.14-10.78z" fill="#fff"/><path d="m-711.54 31.56v36.695l84.46 125.14h20.524v-8.873h-9.578l-66.59-98.64 15.673 5.805 60.49 92.84 5.805 8.873h12.19v-7.919h-6.385l-58.26-88.65 18.658 6.924 54.07 89.64h10.49v-6.966h-5.1l-50.751-79.44 11.568 4.271 49.963 82.14h6.758v-6.137h-6.385l-45.692-79.15v-21.1l-101.92-55.44" fill="url(#2)"/><path d="m-614.26 111.25v-23.15l-12.941-6.831v25.18zm-40.43-44.49v29.5l20.17 7.478v-26.332zm-37.15-19.609v35.33l24.797 9.194v-31.44z" fill="#cfcfcd"/><path d="m-696.9 39.521v4.976l-1.617-.871h-3.649v24.422l80.77 116.47h5.266l-75.71-112.12v-19.612l5.763 3.03v-5.597l23.509 12.397v22.473l65.3 100.67 2.322-.29-58.26-88.65 6.634 2.446-8.127-10.822v-16.05l1.493.829v-5.639l21.501 11.306v25.888l53.55 81.64h3.068l-50.751-79.44 5.473 2.032-6.841-9.619v-12.605h1.368v-4.768l13.227 6.954v17.477l47.43 80.8h1.244l-45.692-79.15v-21.1z" fill="#666"/><path d="m-711.54 68.25v125.14h84.46z" fill="#c1c1c1"/><path d="m-652.51-40.896l10.173-5.196h13.784l41.04-23.692c0 0 15.914-5.436 19.445 0 2.418 3.722-5.414 12.165-5.414 12.165l-44.08 25.449-20.256 35.09-17.281 9.977 10.299-28.658-24.931 13.716c0 0-6.566 3.541-10.587 2.871-9.892-1.649-14.719-13.154-26.22-21.03 0 0-4.972 5.359-9.298 7.958 0 0 .25-7.589 4.356-10.89l-7.372-2.495c0 0 5.612-5.772 14.576-4.523 9.123 1.271 21.455 15.362 33.816 8.191l25.994-15.08c-3.653.337-5.646-2.094-8.04-3.853" fill="url(#3)"/><path d="m-432.03-79.59c25.651 3.336 30.779 9.752 46.24 17.08 7.092-.864 16.08-.315 21.277 2.848-.7 3.856-.984 8.01-4.691 9.717 7.707 7.539 15.675 14.751 23.12 22.617 1.375 1.453-1.703 2.363-3.351 2.848 4.118 2.876 8.837 5.352 11.727 9.05 18.932 1.424 24.46 7.04 24.46 7.04-9.01 1.684-20.06 8.434-20.774 21.78-2.822-1.528-8.235-9.53-16.418-24.46-2.958.885-5.265 1.787-7.455.084-7.342-5.708-15.463-10.962-24.04-15.33 0 0-2.45 4.171-3.102 8.377-.71 4.581-5.647-4.432-6.95-11.895-39.93-19.18-49.07-35.915-50.763-43.811-1.422-6.634 6.04-6.549 10.726-5.939" fill="url(#4)"/><path d="m-442.52691-78.0265a.597126 .597126 0 0 0 -.12432 1.1195c2.852 1.534 5.109 4.326 5.888 8.293a.597126 .597126 0 1 0 1.16097 -.207315c-.842-4.29-3.305-7.462-6.468-9.163a.597126 .597126 0 0 0 -.45609 -.0414"/><path d="m-429.67-76.78c-.895 0-1.659.763-1.659 1.659 0 .895.763 1.617 1.659 1.617.895 0 1.617-.722 1.617-1.617 0-.895-.722-1.659-1.617-1.659"/><path transform="matrix(-.69875-.71537-.71537.69875 0 0)" fill="url(#5)" d="m486.63 165.03h9.154v148.07h-9.154z"/><path transform="matrix(.69875-.71537.71537.69875 0 0)" fill="url(#6)" d="m-224.04-555.29h9.153v141.68h-9.153z"/><path d="m-481.56-256.83l39.535 40.476c1.808.484 4.776.761 5.989-1.794l-3.795-23.333-28.03-28.693z" fill="url(#7)"/><path d="m-533.89-215.29h50.54l7.266 19.538h-65.07z" fill="url(#8)"/><path d="m-550.69-242.37c.516 3.868 3.3 8.089 3.3 8.089l-6.396 6.548c.03.03-2.767-1.753-11.275-4.787-9.788-3.491-25.03 36.654-28.742 37.623-1.938-6.62 11.738-38.553 25.835-51.671 14.452-13.448 38.915-26.481 54.739-22.606-12.814 8.561-38.19 21.319-37.461 26.804" fill="url(#9)"/><path d="m-499.66-193.81h50.54l7.266 19.538h-65.07z" fill="url(#A)"/><path d="m-568.13-193.97h50.54l7.266 19.538h-65.07z" fill="url(#B)"/><path d="m-532.38-63.971l17.04 23.717h6.717l-23.592-23.592-.166-.124m23.758 23.717l23.551-23.592-23.551 16.875v6.717m0 0l23.717 23.717-17-23.717h-6.717m0 0l-23.592 23.592 23.592-16.875v-6.717" fill="#d4af38"/><path d="m-532.36-16.514l23.737-23.737-6.716-.003zm47.47-.005l-23.737-23.737-.003 6.716zm-.005-47.47l-23.737 23.737 6.716.003zm-47.47.003l23.737 23.737.003-6.716z" fill="#ffd700"/><path d="m-508.62-87.4l-6.676 40.468 6.676 6.676v-47.14m0 47.14h47.14l-40.468-6.676-6.676 6.676m0 0v47.14l6.676-40.468-6.676-6.676m0 0h-47.14l40.468 6.676 6.676-6.676" fill="#d4af38"/><path d="m-555.75-40.25h47.13l-6.666-6.666zm47.13 47.13v-47.13l-6.666 6.666zm47.13-47.13h-47.13l6.666 6.666zm-47.13-47.13v47.13l6.666-6.666z" fill="#ffd700"/><path d="m-432.03 18.518c25.651 3.336 30.779 9.752 46.24 17.08 7.092-.864 16.08-.315 21.277 2.848-.7 3.856-.984 8.01-4.691 9.717 7.707 7.539 15.675 14.751 23.12 22.617 1.375 1.453-1.703 2.363-3.351 2.848 4.118 2.876 8.837 5.352 11.727 9.05 18.932 1.424 24.46 7.04 24.46 7.04-9.01 1.684-20.06 8.434-20.774 21.78-2.822-1.528-8.235-9.53-16.418-24.46-2.958.885-5.265 1.787-7.455.084-7.342-5.708-15.463-10.962-24.04-15.33 0 0-2.45 4.171-3.102 8.377-.71 4.581-5.647-4.432-6.95-11.895-39.93-19.18-49.07-35.915-50.763-43.811-1.422-6.634 6.04-6.549 10.726-5.939" fill="url(#C)"/><path d="m-442.52691 20.07964a.597126 .597126 0 0 0 -.12432 1.1195c2.852 1.534 5.109 4.326 5.888 8.293a.597126 .597126 0 1 0 1.16097 -.207315c-.842-4.29-3.305-7.462-6.468-9.163a.597126 .597126 0 0 0 -.45609 -.0414"/><path d="m-429.67 21.324c-.895 0-1.659.763-1.659 1.659 0 .895.763 1.617 1.659 1.617.895 0 1.617-.722 1.617-1.617 0-.895-.722-1.659-1.617-1.659"/><path d="m-432.03 116.62c25.651 3.336 30.779 9.752 46.24 17.08 7.092-.864 16.08-.315 21.277 2.848-.7 3.856-.984 8.01-4.691 9.717 7.707 7.539 15.675 14.751 23.12 22.617 1.375 1.453-1.703 2.363-3.351 2.848 4.118 2.876 8.837 5.352 11.727 9.05 18.932 1.424 24.46 7.04 24.46 7.04-9.01 1.684-20.06 8.434-20.774 21.78-2.822-1.528-8.235-9.53-16.418-24.46-2.958.885-5.265 1.787-7.455.084-7.342-5.708-15.463-10.962-24.04-15.329 0 0-2.45 4.171-3.102 8.377-.71 4.581-5.647-4.432-6.95-11.895-39.93-19.18-49.07-35.915-50.763-43.811-1.422-6.634 6.04-6.549 10.726-5.939" fill="url(#D)"/><path d="m-442.52691 118.18582a.597126 .597126 0 0 0 -.12432 1.1195c2.852 1.534 5.109 4.326 5.888 8.293a.597126 .597126 0 1 0 1.16097 -.20732c-.842-4.29-3.305-7.462-6.468-9.163a.597126 .597126 0 0 0 -.45609 -.0414"/><path d="m-429.67 119.43c-.895 0-1.659.763-1.659 1.659 0 .895.763 1.617 1.659 1.617.895 0 1.617-.722 1.617-1.617 0-.895-.722-1.659-1.617-1.659"/></g></g></svg>