<?xml version="1.0" encoding="utf-8"?>
<!-- Generator: Adobe Illustrator 18.1.1, SVG Export Plug-In . SVG Version: 6.00 Build 0)  -->
<svg version="1.1" id="Слой_1" xmlns="http://www.w3.org/2000/svg" xmlns:xlink="http://www.w3.org/1999/xlink" x="0px" y="0px"
	 viewBox="0 0 141.7 141.7" enable-background="new 0 0 141.7 141.7" xml:space="preserve">
<g>
	<g>
		<path fill="#FFFFFF" d="M94.9,79.4H41.6c-1.2,0-2.1,1-2.1,2.1c0,1.2,1,2.1,2.1,2.1h53.3c1.2,0,2.1-1,2.1-2.1
			C97,80.4,96.1,79.4,94.9,79.4z"/>
	</g>
</g>
<g>
	<g>
		<path fill="#FFFFFF" d="M94.9,65.8H41.6c-1.2,0-2.1,1-2.1,2.1c0,1.2,1,2.1,2.1,2.1h53.3c1.2,0,2.1-1,2.1-2.1
			C97,66.7,96.1,65.8,94.9,65.8z"/>
	</g>
</g>
<g>
	<g>
		<path fill="#FFFFFF" d="M94.9,51.2H41.6c-1.2,0-2.1,1-2.1,2.1c0,1.2,1,2.1,2.1,2.1h53.3c1.2,0,2.1-1,2.1-2.1
			C97,52.1,96.1,51.2,94.9,51.2z"/>
	</g>
</g>
<g>
	<g>
		<path fill="#FFFFFF" d="M94.9,37.5H41.6c-1.2,0-2.1,1-2.1,2.1c0,1.2,1,2.1,2.1,2.1h53.3c1.2,0,2.1-1,2.1-2.1S96.1,37.5,94.9,37.5z
			"/>
	</g>
</g>
<g>
	<g>
		<path fill="#FFFFFF" d="M78.4,93.1H41.6c-1.2,0-2.1,1-2.1,2.1c0,1.2,1,2.1,2.1,2.1h36.7c1.2,0,2.1-1,2.1-2.1
			C80.5,94.1,79.5,93.1,78.4,93.1z"/>
	</g>
</g>
<g>
	<path fill="#FFFFFF" d="M114,8.1H21.5c-1.2,0-2.1,1-2.1,2.1V34c0,0,0,0,0,0v97.5c0,1.2,1,2.1,2.1,2.1h22.6h1.7H50h7.9h37.8
		c0,0,0,0,0.1,0c0.1,0,0.1,0,0.2,0c0,0,0.1,0,0.1,0c0,0,0.1,0,0.1,0c0,0,0.1,0,0.1,0c0,0,0.1,0,0.1,0c0,0,0.1,0,0.1,0
		c0,0,0.1,0,0.1,0c0,0,0.1,0,0.1-0.1c0,0,0.1,0,0.1,0c0,0,0.1,0,0.1-0.1c0,0,0,0,0.1,0c0.1,0,0.1-0.1,0.1-0.1c0,0,0,0,0,0
		c0.1,0,0.1-0.1,0.2-0.1l9.1-9.1l9.1-9.1c0.1-0.1,0.1-0.1,0.2-0.2c0,0,0,0,0-0.1c0.1-0.1,0.1-0.2,0.1-0.2c0,0,0,0,0,0
		c0-0.1,0.1-0.2,0.1-0.2c0,0,0,0,0-0.1c0-0.1,0.1-0.2,0.1-0.3c0,0,0,0,0,0c0-0.1,0-0.1,0-0.2V94.9v-4.2V10C116,9,115.1,8.1,114,8.1z
		 M97.9,126.4v-11h11L97.9,126.4z M111.9,30.4v60.5c0,0,0,0,0,0v0v20.2H95.7c-1.2,0-2.1,1-2.1,2.1v16.1c0,0-70,0-70,0V37.7
		c0,0,0,0,0,0V12.4h88.2V30.4z"/>
</g>
</svg>
