<?xml version="1.0" encoding="utf-8"?>
<!-- Generator: Adobe Illustrator 18.1.1, SVG Export Plug-In . SVG Version: 6.00 Build 0)  -->
<svg version="1.1" id="Слой_1" xmlns="http://www.w3.org/2000/svg" xmlns:xlink="http://www.w3.org/1999/xlink" x="0px" y="0px"
	 viewBox="0 0 141.7 141.7" enable-background="new 0 0 141.7 141.7" xml:space="preserve">
<path fill="#FFFFFF" d="M51.3,107.6L51.3,107.6c1.8,0.1,5.1,0.3,9.1,0.3c5.2,0,9.4-0.3,12.6-0.8c7.4-1.2,9.5-7.7,9.2-11.8
	c-0.1-0.9-0.7-1.6-1.5-1.9l-26.1-7.9c-2.4-0.7-5-1.1-7.8-1.1c-9.1,0-17.2,3.8-18.7,4.6c0,0,0,0,0,0L2,104.7c-0.5,0.3-0.8,0.8-1,1.3
	c-0.1,0.6-0.1,1.1,0.2,1.6c0.4,0.6,1.1,1,1.8,1c0.4,0,0.7-0.1,1.1-0.3l25.9-15.6c0.1,0,7.9-4.1,16.6-4.1c2.4,0,4.6,0.3,6.6,0.9
	L77.9,97l-0.3,1.3c-0.1,0.3-0.1,0.5-0.2,0.7c-0.8,2.2-2.5,3.5-5.1,3.9c-2.9,0.5-6.9,0.7-11.8,0.7c-2.8,0-6-0.1-8.8-0.2l-0.2,0
	c-1.2-0.1-2.2,0.8-2.3,2C49.2,106.5,50.1,107.5,51.3,107.6z"/>
<path fill="#FFFFFF" d="M19.8,131.8l10.2-8.5l42.2,6.7c1.1,0.2,2.2,0.3,3.4,0.3c4.6,0,9.2-1.5,12.9-4.2l51.6-37.8
	c0.8-0.6,1.1-1.8,0.6-2.7c-1.3-2.3-4.8-6.2-10.3-6.2c-1.9,0-3.9,0.5-5.9,1.4c-7.7,3.4-22.4,10.4-27.2,12.8c-1,0.5-1.3,0.6-1.4,0.7
	c-0.5,0.3-0.9,0.7-1.1,1.2c-0.2,0.5-0.2,1.1,0.1,1.6c0.4,0.7,1.1,1.2,1.9,1.2c0.3,0,0.6-0.1,0.9-0.2l0.1,0c0,0,0.5-0.2,1.2-0.6
	c12.9-6.2,22.1-10.5,27.2-12.7c1.5-0.7,2.8-1,4.1-1c1.3,0,2.6,0.4,3.7,1.1c0,0,0.1,0,0.1,0.1l2,1l-50.2,36.8
	c-3,2.2-6.6,3.4-10.3,3.4c-0.9,0-1.8-0.1-2.7-0.2L29.7,119c-0.1,0-0.2,0-0.3,0c-0.5,0-1,0.2-1.4,0.5L17,128.6
	c-0.4,0.4-0.7,0.9-0.8,1.4c-0.1,0.6,0.1,1.1,0.5,1.6c0.4,0.5,1,0.8,1.6,0.8C18.9,132.3,19.4,132.2,19.8,131.8z"/>
<path fill="#FFFFFF" d="M75.9,40.9c-5.1,0-10,2-13.7,5.7c-7.5,7.5-7.5,19.8,0,27.3c3.7,3.6,8.5,5.7,13.7,5.7c5.1,0,10-2,13.7-5.7
	c7.5-7.5,7.5-19.8,0-27.3C85.9,42.9,81,40.9,75.9,40.9z M86.5,70.8c-2.8,2.8-6.6,4.4-10.6,4.4s-7.8-1.6-10.6-4.4
	c-2.8-2.8-4.4-6.6-4.4-10.6s1.6-7.8,4.4-10.6c2.8-2.8,6.6-4.4,10.6-4.4c4,0,7.8,1.6,10.6,4.4C92.4,55.4,92.4,65,86.5,70.8z"/>
<path fill="#FFFFFF" d="M110.6,13.8c-2.8-2.8-6.5-4.3-10.4-4.3s-7.6,1.5-10.4,4.3c-5.8,5.8-5.8,15.1,0,20.9
	c2.8,2.8,6.5,4.3,10.4,4.3c3.9,0,7.6-1.5,10.4-4.3C116.4,28.9,116.4,19.5,110.6,13.8z M107.7,31.7c-2,2-4.6,3.1-7.4,3.1
	c-2.8,0-5.4-1.1-7.4-3.1c-4.1-4.1-4.1-10.8,0-14.8c2-2,4.6-3.1,7.4-3.1c2.8,0,5.4,1.1,7.4,3.1C111.7,20.9,111.7,27.6,107.7,31.7z"/>
</svg>
