<?xml version="1.0" encoding="utf-8"?>
<!-- Generator: Adobe Illustrator 18.1.1, SVG Export Plug-In . SVG Version: 6.00 Build 0)  -->
<svg version="1.1" id="Слой_1" xmlns="http://www.w3.org/2000/svg" xmlns:xlink="http://www.w3.org/1999/xlink" x="0px" y="0px"
	 viewBox="0 0 141.7 141.7" enable-background="new 0 0 141.7 141.7" xml:space="preserve">
<g transform="translate(1 1)">
	<g>
		<g>
			<path fill="#FFFFFF" d="M65.9,104.8h-2.1c-1.3,0-2.1,0.9-2.1,2.1s0.9,2.1,2.1,2.1h2.1c1.3,0,2.1-0.9,2.1-2.1
				S67.2,104.8,65.9,104.8z"/>
			<path fill="#FFFFFF" d="M29.5,113.4c-3,0-5.1,1.9-6,3s-0.6,2.4,0.4,3c1.1,0.9,2.4,0.6,3-0.4c0,0,1.1-1.3,2.6-1.3
				c1.9,0,2.4,0.9,2.4,0.9c0.2,0.9,1.1,1.3,1.9,1.3c0.2,0,0.4,0,0.6-0.2c1.1-0.4,1.7-1.7,1.3-2.8C35.3,115.5,33.4,113.4,29.5,113.4z
				"/>
			<path fill="#FFFFFF" d="M123.7,115.8V62h1.7c1.9,0,3.9-1.5,4.5-3.2c0.6-1.7,0.2-3.9-1.3-5.1L79.4,9.9C74.3,5,66.1,5,61,9.9
				L44.5,24.6v-5.4h2.1c1.3,0,2.1-0.9,2.1-2.1V8.4c0-1.3-0.9-2.1-2.1-2.1H21c-1.3,0-2.1,0.9-2.1,2.1V17c0,1.3,0.9,2.1,2.1,2.1h2.1
				v24.4L11.8,53.6c-1.5,1.5-1.9,3.4-1.3,5.4c0.6,1.7,2.6,3,4.5,3h1.7v53.8C10.6,116.7,6,122,6,128.4c0,1.7,0.4,3.4,1.1,5.1
				c0.2,0.9,1.1,1.3,1.9,1.3h41.1h7.3h25.7h7.3h41.1c0.9,0,1.5-0.4,1.9-1.3c0.6-1.7,1.1-3.4,1.1-5.1
				C134.5,122,129.8,116.7,123.7,115.8z M23.1,10.6h21.4v4.3h-2.1H25.2h-2.1L23.1,10.6L23.1,10.6z M27.4,27.7h4.3
				c1.3,0,2.1-0.9,2.1-2.1c0-1.3-0.9-2.1-2.1-2.1h-4.3v-4.3h12.8v9.2L27.4,39.8V27.7z M14.5,57.3c0-0.2,0-0.2,0.2-0.4L64,13.2
				c1.7-1.7,4.1-2.6,6.2-2.6c2.1,0,4.5,0.9,6.2,2.6l49.2,43.7c0.2,0,0.4,0.2,0.2,0.4c-0.2,0.2-0.4,0.2-0.4,0.2H15
				C14.8,57.5,14.5,57.5,14.5,57.3z M10,128.4c0-4.7,3.8-8.5,8.4-8.6c0.2,0,0.4,0,0.6,0c1.1-0.2,1.9-1.1,1.9-2.1
				c0-4.7,3.8-8.5,8.5-8.6c4.7,0.1,8.5,3.9,8.5,8.6c0,1.3,0.9,2.1,2.1,2.1c4.7,0,8.6,3.9,8.6,8.6c0,0.6,0,1.5-0.2,2.1H10.5
				C10.3,129.9,10.3,129,10,128.4z M59.5,130.5V94.1c0-6,4.7-10.7,10.7-10.7c6,0,10.7,4.7,10.7,10.7v36.4H59.5L59.5,130.5z
				 M87.3,128.4c0,0.6,0,1.5,0.2,2.1c0,0,0,0,0,0h-2.4V94.1c0-8.4-6.6-15-15-15s-15,6.6-15,15v36.4h-2.4c0,0,0,0,0,0
				c0.2-0.6,0.2-1.5,0.2-2.1c0-6.4-4.7-11.8-10.9-12.6c-0.9-6.2-6.2-10.9-12.6-10.9c-3.2,0-6.2,1.1-8.6,3.2V62h98.5v46
				c-0.3-0.3-0.7-0.5-1-0.8c-2.1-1.5-4.7-2.5-7.6-2.5c-6.4,0-11.8,4.7-12.6,10.9C92.1,116.6,87.3,121.9,87.3,128.4z M129.7,130.5
				H91.9c-0.2-0.7-0.2-1.5-0.2-2.1c0-4.7,3.9-8.6,8.6-8.6c1.3,0,2.1-0.9,2.1-2.1c0-4.7,3.8-8.5,8.5-8.6c4.7,0.1,8.5,3.9,8.5,8.6
				c0,1.3,0.9,2.1,2.1,2.1c4.7,0,8.6,3.9,8.6,8.6C130,129,130,129.9,129.7,130.5z"/>
			<path fill="#FFFFFF" d="M110.9,113.4c-3,0-5.1,1.9-6,3c-0.9,1.1-0.6,2.4,0.4,3c1.1,0.9,2.4,0.4,3-0.4c0,0,1.1-1.3,2.6-1.3
				c1.9,0,2.4,0.9,2.4,0.9c0.2,0.9,1.1,1.3,1.9,1.3c0.2,0,0.4,0,0.6-0.2c1.1-0.4,1.7-1.7,1.3-2.8
				C116.7,115.5,114.8,113.4,110.9,113.4z"/>
			<path fill="#FFFFFF" d="M50.9,87.7V77v-8.6c0-1.3-0.9-2.1-2.1-2.1H27.4c-1.3,0-2.1,0.9-2.1,2.1V77v10.7c-1.3,0-2.1,0.9-2.1,2.1
				S24,92,25.2,92h2.1h21.4h2.1c1.3,0,2.1-0.9,2.1-2.1C53.1,88.5,52.2,87.7,50.9,87.7z M29.5,70.5h17.1v4.3H29.5V70.5z M29.5,87.7
				v-8.6H36v2.1c0,1.3,0.9,2.1,2.1,2.1c1.3,0,2.1-0.9,2.1-2.1v-2.1h6.4v8.6H29.5z"/>
			<path fill="#FFFFFF" d="M113,92h2.1c1.3,0,2.1-0.9,2.1-2.1s-0.9-2.1-2.1-2.1V77v-8.6c0-1.3-0.9-2.1-2.1-2.1H91.6
				c-1.3,0-2.1,0.9-2.1,2.1V77v10.7c-1.3,0-2.1,0.9-2.1,2.1s0.9,2.1,2.1,2.1h2.1L113,92L113,92z M93.8,70.5h17.1v4.3H93.8V70.5z
				 M93.8,79.1h6.4c0,1.3,0.9,2.1,2.1,2.1c1.3,0,2.1-0.9,2.1-2.1h6.4v8.6H93.8L93.8,79.1L93.8,79.1z"/>
		</g>
	</g>
</g>
</svg>
