<?xml version="1.0" encoding="utf-8"?>
<!-- Generator: Adobe Illustrator 18.1.1, SVG Export Plug-In . SVG Version: 6.00 Build 0)  -->
<svg version="1.1" id="Слой_1" xmlns="http://www.w3.org/2000/svg" xmlns:xlink="http://www.w3.org/1999/xlink" x="0px" y="0px"
	 viewBox="0 0 141.7 141.7" enable-background="new 0 0 141.7 141.7" xml:space="preserve">
<g>
	<path fill="#FFFFFF" d="M33.2,103.4c-2.4,0-4.3,1.9-4.3,4.3s1.9,4.3,4.3,4.3c2.4,0,4.3-1.9,4.3-4.3S35.6,103.4,33.2,103.4z"/>
	<path fill="#FFFFFF" d="M115.6,103.4c-2.4,0-4.3,1.9-4.3,4.3s1.9,4.3,4.3,4.3c2.4,0,4.3-1.9,4.3-4.3S117.9,103.4,115.6,103.4z"/>
	<path fill="#FFFFFF" d="M88.1,93.4H53.2c-1,0-1.8,0.8-1.8,1.8s0.8,1.8,1.8,1.8h34.9c1,0,1.8-0.8,1.8-1.8S89.1,93.4,88.1,93.4z"/>
	<path fill="#FFFFFF" d="M129.8,68.6l-0.4-0.1l-4.1-16.4l0.6-0.1c0.8-0.2,1.4-0.9,1.4-1.7v-2.5c0-5.1-4.2-9.3-9.3-9.3H99.9v-5.7
		c0-2.4-1.9-4.3-4.3-4.3H5.8c-2.4,0-4.3,1.9-4.3,4.3v60.6h0v3.6l0,0.6v5.1c0,2.4,1.9,4.3,4.3,4.3H19l0,0.7c0,7.9,6.4,14.3,14.3,14.3
		s14.3-6.4,14.3-14.3l0-0.7h53.9l0,0.7c0,7.9,6.4,14.3,14.3,14.3s14.3-6.4,14.3-14.3l0-0.7h8.2c1,0,1.8-0.8,1.8-1.8v-25
		C139.8,74.4,135.5,69.4,129.8,68.6z M33.2,118.3c-5.9,0-10.7-4.8-10.7-10.7s4.8-10.7,10.7-10.7s10.7,4.8,10.7,10.7
		S39.1,118.3,33.2,118.3z M96.3,103.4H46.8l-0.1-0.4c-2-5.7-7.4-9.6-13.5-9.6c-6.1,0-11.5,3.9-13.5,9.6l-0.1,0.4H5.8
		c-0.4,0-0.7-0.3-0.7-0.7v-5.7h10.7c1,0,1.8-0.8,1.8-1.8c0-1-0.8-1.8-1.8-1.8H5.1V32.8c0-0.4,0.3-0.7,0.7-0.7h89.8
		c0.4,0,0.7,0.3,0.7,0.7L96.3,103.4z M99.9,42h18.2c3.1,0,5.7,2.6,5.7,5.7v0.7H99.9V42z M99.9,52h21.8l4.1,16.4H99.9V52z
		 M115.6,118.3c-5.9,0-10.7-4.8-10.7-10.7s4.8-10.7,10.7-10.7c5.9,0,10.7,4.8,10.7,10.7S121.5,118.3,115.6,118.3z M136.2,103.4h-7.1
		L129,103c-2-5.7-7.4-9.6-13.5-9.6c-6.1,0-11.5,3.9-13.5,9.6l-0.1,0.4h-2.1l0-31.4l28.2,0c3.6,0,6.7,2.3,7.8,5.7l0.2,0.7h-8
		c-1,0-1.8,0.8-1.8,1.8v5c0,3.7,3,6.8,6.8,6.8h3.2V103.4z M136.2,88.4H133c-1.8,0-3.2-1.4-3.2-3.2V82h6.4V88.4z"/>
</g>
</svg>
