<?xml version="1.0" encoding="utf-8"?>
<!-- Generator: Adobe Illustrator 18.1.1, SVG Export Plug-In . SVG Version: 6.00 Build 0)  -->
<svg version="1.1" id="Слой_1" xmlns="http://www.w3.org/2000/svg" xmlns:xlink="http://www.w3.org/1999/xlink" x="0px" y="0px"
	 viewBox="0 0 141.7 141.7" enable-background="new 0 0 141.7 141.7" xml:space="preserve">
<g>
	<title>grow-growth-startup-plant-business</title>
	<path fill="#FFFFFF" d="M85.6,85.3c5.4-5.4,5-14.2,4.9-14.6c-0.1-1-0.9-1.9-1.9-1.9c-0.4,0-9.2-0.5-14.6,4.9
		c-0.3,0.3-0.6,0.6-0.9,1v-9.1c1.7-1.8,6.1-6.9,6.1-13.1c0-7.6-6.5-13.5-6.8-13.8c-0.8-0.7-1.9-0.7-2.7,0c-0.3,0.2-6.8,6.1-6.8,13.8
		c0,6.2,4.4,11.4,6.1,13.1v9.1c-0.3-0.3-0.6-0.7-0.9-1c-5.3-5.4-14.2-5-14.6-5c-1,0.1-1.9,0.9-1.9,1.9c0,0.4-0.5,9.2,4.9,14.6
		C60,88.3,64.4,90,69,90.1v12.1c-0.3-0.3-0.6-0.7-0.9-1c-5.4-5.4-14.2-5-14.6-4.9c-1,0.1-1.9,0.9-1.9,1.9c0,0.4-0.5,9.2,4.9,14.6
		c3.4,3.1,7.8,4.8,12.4,5v18.4h4.1v-18.4c4.6-0.1,9-1.8,12.4-4.9c5.4-5.4,5-14.2,4.9-14.6c-0.1-1-0.9-1.9-1.9-1.9
		c-0.4,0-9.2-0.5-14.6,4.9c-0.3,0.3-0.6,0.6-0.9,1V90.2C77.7,90.1,82.1,88.3,85.6,85.3z M76.9,76.6c2.7-2.3,6-3.6,9.5-3.7
		c-0.1,3.5-1.4,6.8-3.7,9.5c-2.7,2.3-6,3.6-9.5,3.7C73.3,82.6,74.6,79.2,76.9,76.6L76.9,76.6z M59.5,82.4c-2.3-2.7-3.6-6-3.7-9.5
		c3.5,0.1,6.8,1.4,9.5,3.7c2.3,2.7,3.6,6,3.7,9.5C65.5,85.9,62.1,84.6,59.5,82.4L59.5,82.4z M59.5,110c-2.3-2.7-3.6-6-3.7-9.5
		c3.5,0.1,6.8,1.4,9.5,3.7c2.3,2.7,3.6,6,3.7,9.5C65.5,113.6,62.1,112.3,59.5,110z M76.9,104.2c2.7-2.3,6-3.6,9.5-3.7
		c-0.1,3.5-1.4,6.8-3.7,9.5c-2.7,2.3-6,3.6-9.5,3.7C73.2,110.2,74.6,106.9,76.9,104.2L76.9,104.2L76.9,104.2z M71.1,43
		c5.1,4.7,5.5,12.7,0.8,17.9c-0.2,0.3-0.5,0.5-0.8,0.8c-5.1-4.7-5.5-12.7-0.8-17.9C70.6,43.5,70.8,43.3,71.1,43z"/>
	<path fill="#FFFFFF" d="M43.5,96.4c-0.4,0-9.2-0.5-14.6,4.9c-0.3,0.3-0.6,0.6-0.9,1V87.9c1.7-1.8,6.1-6.9,6.1-13.1
		c0-7.6-6.5-13.5-6.8-13.8c-0.8-0.7-1.9-0.7-2.7,0c-0.3,0.2-6.8,6.1-6.8,13.8c0,6.2,4.4,11.4,6.1,13.1v14.3c-0.3-0.3-0.6-0.7-0.9-1
		c-5.4-5.4-14.2-5-14.6-4.9c-1,0.1-1.9,0.9-1.9,1.9c0,0.4-0.5,9.2,4.9,14.6c3.4,3.1,7.8,4.8,12.4,5v18.4h4.1v-18.4
		c4.6-0.1,9-1.8,12.4-4.9c5.4-5.4,5-14.2,4.9-14.6C45.4,97.3,44.6,96.4,43.5,96.4z M14.5,110c-2.3-2.7-3.6-6-3.7-9.5
		c3.5,0.1,6.8,1.4,9.5,3.7c2.3,2.7,3.6,6,3.7,9.5C20.5,113.6,17.1,112.3,14.5,110z M26.1,65.5c5.1,4.7,5.5,12.7,0.8,17.9
		c-0.2,0.3-0.5,0.5-0.8,0.8c-5.1-4.7-5.5-12.7-0.8-17.9C25.5,66,25.8,65.8,26.1,65.5z M37.6,110c-2.7,2.3-6,3.6-9.5,3.7
		c0.1-3.5,1.4-6.8,3.7-9.5c2.7-2.3,6-3.6,9.5-3.7C41.2,104,39.9,107.4,37.6,110z"/>
	<path fill="#FFFFFF" d="M130.6,84.2c5.4-5.4,5-14.2,4.9-14.6c-0.1-1-0.9-1.9-1.9-1.9c-0.4,0-9.2-0.5-14.6,4.9
		c-0.3,0.3-0.6,0.6-0.9,1V60.5c4.6-0.1,9-1.8,12.4-4.9c5.4-5.4,5-14.2,4.9-14.6c-0.1-1-0.9-1.9-1.9-1.9c-0.4,0-9.2-0.5-14.6,4.9
		c-0.3,0.3-0.6,0.6-0.9,1V32.7c1.7-1.8,6.1-6.9,6.1-13.1c0-7.6-6.5-13.5-6.8-13.8c-0.8-0.7-1.9-0.7-2.7,0c-0.3,0.2-6.8,6.1-6.8,13.8
		c0,6.2,4.4,11.4,6.1,13.1V45c-0.3-0.3-0.6-0.7-0.9-1c-5.4-5.4-14.2-5-14.6-4.9c-1,0.1-1.9,0.9-1.9,1.9c0,0.4-0.5,9.2,4.9,14.6
		c3.4,3,7.8,4.8,12.4,4.9v13.1c-0.3-0.3-0.6-0.7-0.9-1c-5.4-5.4-14.2-5-14.6-4.9c-1,0.1-1.9,0.9-1.9,1.9c0,0.4-0.5,9.2,4.9,14.6
		c3.4,3,7.8,4.8,12.4,4.9v13.1c-0.3-0.3-0.6-0.7-0.9-1c-5.4-5.4-14.2-5-14.6-4.9c-1,0.1-1.9,0.9-1.9,1.9c0,0.4-0.5,9.2,4.9,14.6
		c3.4,3,7.8,4.8,12.4,4.9v18.4h4.1v-18.4c4.6-0.1,9-1.8,12.4-4.9c5.4-5.4,5-14.2,4.9-14.6c-0.1-1-0.9-1.9-1.9-1.9
		c-0.4,0-9.2-0.5-14.6,4.9c-0.3,0.3-0.6,0.6-0.9,1V89.2C122.7,89,127.2,87.3,130.6,84.2z M121.9,75.5c2.7-2.3,6-3.6,9.5-3.7
		c0.3,7-5.1,12.9-12,13.2c-0.4,0-0.8,0-1.2,0C118.3,81.6,119.6,78.2,121.9,75.5L121.9,75.5z M121.9,46.9c2.7-2.3,6-3.6,9.5-3.7
		c0.3,7-5.1,12.9-12,13.2c-0.4,0-0.8,0-1.2,0C118.3,52.9,119.6,49.6,121.9,46.9L121.9,46.9L121.9,46.9z M104.5,52.7
		c-2.3-2.7-3.6-6-3.7-9.5c3.5,0.1,6.8,1.4,9.5,3.7c2.3,2.7,3.6,6,3.7,9.5C110.5,56.3,107.2,55,104.5,52.7z M104.5,81.3
		c-2.3-2.7-3.6-6-3.7-9.5c3.5,0.1,6.8,1.4,9.5,3.7c2.3,2.7,3.6,6,3.7,9.5C110.5,85,107.2,83.6,104.5,81.3z M104.5,110
		c-2.3-2.7-3.6-6-3.7-9.5c3.5,0.1,6.8,1.4,9.5,3.7c2.3,2.7,3.6,6,3.7,9.5C110.5,113.6,107.2,112.3,104.5,110z M121.9,104.2
		c2.7-2.3,6-3.6,9.5-3.7c0.3,7-5.1,12.9-12,13.2c-0.4,0-0.8,0-1.2,0C118.3,110.2,119.6,106.9,121.9,104.2L121.9,104.2z M116.1,10.3
		c5.1,4.7,5.5,12.7,0.8,17.9c-0.2,0.3-0.5,0.5-0.8,0.8c-5.1-4.7-5.5-12.7-0.8-17.9C115.6,10.8,115.8,10.5,116.1,10.3z"/>
</g>
</svg>
