<?xml version="1.0" encoding="utf-8"?>
<!-- Generator: Adobe Illustrator 18.1.1, SVG Export Plug-In . SVG Version: 6.00 Build 0)  -->
<svg version="1.1" id="Слой_1" xmlns="http://www.w3.org/2000/svg" xmlns:xlink="http://www.w3.org/1999/xlink" x="0px" y="0px"
	 viewBox="0 0 141.7 141.7" enable-background="new 0 0 141.7 141.7" xml:space="preserve">
<g>
	<g>
		<path fill="#FFFFFF" d="M115.2,116c-1.1,0-2,0.9-2,2v7.1H28.5v-29c0-1.1-0.9-2-2-2c-1.1,0-2,0.9-2,2v31v5.4c0,2.5,2,4.6,4.6,4.6
			h83.4c2.5,0,4.6-2,4.6-4.6v-5.4V118C117.1,116.9,116.3,116,115.2,116z M113.2,132.5c0,0.4-0.3,0.7-0.7,0.7H29.1
			c-0.4,0-0.7-0.3-0.7-0.7V129h84.7L113.2,132.5L113.2,132.5z"/>
	</g>
</g>
<g>
	<g>
		<path fill="#FFFFFF" d="M112.1,73.3h-7.4c-4.9-9.5-14-16.6-24.3-19.5c5.7-3.3,9.5-9.4,9.5-16.4v-7.3v-7.3c0-3.9-1.2-7.6-3.3-10.6
			C83.2,7,77.4,3.7,70.9,3.7c-10.5,0-19,8.5-19,19v7.3v7.3c0,7,3.8,13.2,9.5,16.4c-10.3,2.9-19.4,10-24.3,19.5h-7.4
			c-2.8,0-5,2.3-5,5v11.2c0,1.1,0.9,2,2,2s2-0.9,2-2V78.4c0-0.6,0.5-1.1,1.1-1.1h82.5c0.6,0,1.1,0.5,1.1,1.1v33.1c0,1.1,0.9,2,2,2
			c1.1,0,2-0.9,2-2V78.4C117.1,75.6,114.9,73.3,112.1,73.3z M70.9,7.6c8.3,0,15.1,6.8,15.1,15.1v5.2c-7-1.2-9.9-8.3-10-8.6
			c-0.3-0.7-0.9-1.2-1.7-1.3c-0.8-0.1-1.5,0.3-1.8,1c0,0.1-4.6,8.2-16.7,9v-5.3h0C55.8,14.4,62.5,7.6,70.9,7.6z M55.8,37.4V32
			c9.7-0.6,15.4-5.2,18.1-8.3c1.9,3,5.7,7.4,12.1,8.2v5.5c0,8.1-6.5,14.8-14.6,15.1c-0.2,0-0.3,0-0.5,0l0,0l0,0c-0.2,0-0.3,0-0.5,0
			C62.2,52.2,55.8,45.5,55.8,37.4z M62.7,73.3H41.5C45.9,66,53.1,60.5,61.2,58l3.5,6.8L62.7,73.3z M66.7,73.3l1.6-6.9h5.1l1.6,6.9
			H66.7z M73.8,62.6H68L65.1,57c0.8-0.2,1.6-0.3,2.4-0.4c0,0,0,0,0,0c0.7-0.1,1.4-0.1,2.1-0.2c0.1,0,0.1,0,0.2,0c0.2,0,0.3,0,0.5,0
			c0.2,0,0.3,0,0.5,0s0.3,0,0.5,0c0.2,0,0.3,0,0.5,0c0.1,0,0.1,0,0.2,0c0.7,0,1.4,0.1,2.1,0.2c0,0,0,0,0,0c0.8,0.1,1.6,0.2,2.4,0.4
			L73.8,62.6z M79,73.3l-2-8.6l3.5-6.8c8.1,2.6,15.3,8.1,19.7,15.4H79z"/>
	</g>
</g>
<g>
	<g>
		<path fill="#FFFFFF" d="M70.9,94c-4.5,0-8.1,3.6-8.1,8.1c0,4.5,3.6,8.1,8.1,8.1c4.5,0,8.1-3.6,8.1-8.1C78.9,97.6,75.3,94,70.9,94z
			 M70.9,106.2c-2.3,0-4.2-1.9-4.2-4.2c0-2.3,1.9-4.2,4.2-4.2c2.3,0,4.2,1.9,4.2,4.2C75,104.3,73.2,106.2,70.9,106.2z"/>
	</g>
</g>
</svg>
